<?xml version="1.0" encoding="UTF-8" standalone="no"?>
<!-- Created with Inkscape (http://www.inkscape.org/) -->

<svg
   width="64"
   height="64"
   viewBox="0 0 63.999999 63.999999"
   id="svg2"
   version="1.1"
   inkscape:version="1.2.2 (b0a8486541, 2022-12-01)"
   sodipodi:docname="mpv.svg"
   xml:space="preserve"
   xmlns:inkscape="http://www.inkscape.org/namespaces/inkscape"
   xmlns:sodipodi="http://sodipodi.sourceforge.net/DTD/sodipodi-0.dtd"
   xmlns:xlink="http://www.w3.org/1999/xlink"
   xmlns="http://www.w3.org/2000/svg"
   xmlns:svg="http://www.w3.org/2000/svg"
   xmlns:rdf="http://www.w3.org/1999/02/22-rdf-syntax-ns#"
   xmlns:cc="http://creativecommons.org/ns#"
   xmlns:dc="http://purl.org/dc/elements/1.1/"><defs
     id="defs4"><linearGradient
       inkscape:collect="always"
       id="linearGradient4430"><stop
         style="stop-color:#65376e;stop-opacity:1"
         offset="0"
         id="stop4432" /><stop
         style="stop-color:#4c2354;stop-opacity:1"
         offset="1"
         id="stop4434" /></linearGradient><linearGradient
       id="linearGradient4418"
       inkscape:collect="always"><stop
         id="stop4420"
         offset="0"
         style="stop-color:#e6e2e8;stop-opacity:1" /><stop
         id="stop4422"
         offset="1"
         style="stop-color:#aaa3ad;stop-opacity:1" /></linearGradient><linearGradient
       inkscape:collect="always"
       id="linearGradient4402"><stop
         style="stop-color:#320f38;stop-opacity:1"
         offset="0"
         id="stop4404" /><stop
         style="stop-color:#5a2963;stop-opacity:1"
         offset="1"
         id="stop4406" /></linearGradient><linearGradient
       inkscape:collect="always"
       id="linearGradient4392"><stop
         style="stop-color:#6b3c74;stop-opacity:1"
         offset="0"
         id="stop4394" /><stop
         style="stop-color:#461b4d;stop-opacity:1"
         offset="1"
         id="stop4396" /></linearGradient><linearGradient
       inkscape:collect="always"
       id="linearGradient4382"><stop
         style="stop-color:#fafafa;stop-opacity:1"
         offset="0"
         id="stop4384" /><stop
         style="stop-color:#bababa;stop-opacity:1"
         offset="1"
         id="stop4386" /></linearGradient><linearGradient
       inkscape:collect="always"
       xlink:href="#linearGradient4382"
       id="linearGradient5278"
       gradientUnits="userSpaceOnUse"
       gradientTransform="translate(-86.873198,699.81912)"
       x1="97.187729"
       y1="305.67371"
       x2="140.38228"
       y2="335.64926" /><linearGradient
       inkscape:collect="always"
       xlink:href="#linearGradient4392"
       id="linearGradient5280"
       gradientUnits="userSpaceOnUse"
       gradientTransform="translate(-33.950571,701.54132)"
       x1="50.828064"
       y1="298.31949"
       x2="78.197021"
       y2="339.65219" /><linearGradient
       inkscape:collect="always"
       xlink:href="#linearGradient4402"
       id="linearGradient5282"
       gradientUnits="userSpaceOnUse"
       gradientTransform="translate(-31.48364,700.09839)"
       x1="53.620815"
       y1="305.76682"
       x2="77.824654"
       y2="331.73938" /><linearGradient
       inkscape:collect="always"
       xlink:href="#linearGradient4418"
       id="linearGradient5284"
       gradientUnits="userSpaceOnUse"
       gradientTransform="translate(-87.152474,700.0053)"
       x1="110.31366"
       y1="312.28323"
       x2="126.88398"
       y2="329.41211" /><linearGradient
       inkscape:collect="always"
       xlink:href="#linearGradient4430"
       id="linearGradient5286"
       gradientUnits="userSpaceOnUse"
       gradientTransform="translate(-87.152474,700.0053)"
       x1="115.97468"
       y1="317.41763"
       x2="119.37984"
       y2="322.43457" /></defs><sodipodi:namedview
     id="base"
     pagecolor="#ffffff"
     bordercolor="#666666"
     borderopacity="1.0"
     inkscape:pageopacity="0.0"
     inkscape:pageshadow="2"
     inkscape:zoom="2.8284271"
     inkscape:cx="19.975767"
     inkscape:cy="-34.471455"
     inkscape:document-units="px"
     inkscape:current-layer="layer1"
     showgrid="false"
     units="px"
     inkscape:window-width="2560"
     inkscape:window-height="1357"
     inkscape:window-x="3840"
     inkscape:window-y="0"
     inkscape:window-maximized="1"
     inkscape:showpageshadow="2"
     inkscape:pagecheckerboard="0"
     inkscape:deskcolor="#d1d1d1" /><metadata
     id="metadata7"><rdf:RDF><cc:Work
         rdf:about=""><dc:format>image/svg+xml</dc:format><dc:type
           rdf:resource="http://purl.org/dc/dcmitype/StillImage" /><dc:title /></cc:Work></rdf:RDF></metadata><g
     inkscape:label="Layer 1"
     inkscape:groupmode="layer"
     id="layer1"
     transform="translate(0,-988.3622)"><circle
       style="opacity:1;fill:url(#linearGradient5278);fill-opacity:1;fill-rule:nonzero;stroke:none;stroke-width:0.10161044;stroke-linecap:round;stroke-linejoin:bevel;stroke-miterlimit:1;stroke-dasharray:none;stroke-dashoffset:0;stroke-opacity:0.99215686"
       id="path4380-0"
       cx="32"
       cy="1020.3622"
       r="27.949194" /><circle
       style="opacity:1;fill:url(#linearGradient5280);fill-opacity:1;fill-rule:nonzero;stroke:none;stroke-width:0.0988237;stroke-linecap:round;stroke-linejoin:bevel;stroke-miterlimit:1;stroke-dasharray:none;stroke-dashoffset:0;stroke-opacity:0.992157"
       id="path4390-3"
       cx="31.749596"
       cy="1019.8337"
       r="25.950588" /><circle
       style="opacity:1;fill:url(#linearGradient5282);fill-opacity:1;fill-rule:nonzero;stroke:none;stroke-width:0.1;stroke-linecap:round;stroke-linejoin:bevel;stroke-miterlimit:1;stroke-dasharray:none;stroke-dashoffset:0;stroke-opacity:0.99215686"
       id="path4400-3"
       cx="34.224396"
       cy="1017.7957"
       r="20" /><path
       style="fill:url(#linearGradient5284);fill-opacity:1;fill-rule:evenodd;stroke:none;stroke-width:0.1;stroke-linecap:butt;stroke-linejoin:miter;stroke-miterlimit:4;stroke-dasharray:none;stroke-opacity:1"
       d="m 44.481446,1020.4807 a 12.848894,12.848894 0 0 1 -12.84889,12.8489 12.848894,12.848894 0 0 1 -12.8489,-12.8489 12.848894,12.848894 0 0 1 12.8489,-12.8489 12.848894,12.848894 0 0 1 12.84889,12.8489 z"
       id="path4412-5"
       inkscape:connector-curvature="0" /><path
       style="fill:url(#linearGradient5286);fill-opacity:1;fill-rule:evenodd;stroke:none;stroke-width:0.1;stroke-linecap:butt;stroke-linejoin:miter;stroke-miterlimit:4;stroke-dasharray:none;stroke-opacity:1"
       d="m 28.374316,1014.709 0,11.4502 9.21608,-5.8647 z"
       id="path4426-2"
       inkscape:connector-curvature="0" /><g
       id="g343"
       transform="matrix(0,0,0,0,2.6330308,1048.0662)"><rect
         x="0"
         y="0"
         width="24"
         height="24"
         fill="rgba(255, 255, 255, 0)"
         id="rect331" /><path
         fill="currentColor"
         d="M 2,11 V 9 H 5.6 L 1.3,4.7 2.7,3.3 7,7.6 V 4 h 2 v 7 z m 2,9 Q 3.175,20 2.587,19.412 1.999,18.824 2,18 v -5 h 2 v 5 h 8 v 2 z M 20,13 V 6 H 11 V 4 h 9 Q 20.825,4 21.413,4.588 22.001,5.176 22,6 v 7 z m -6,7 v -5 h 8 v 5 z"
         id="path333" /></g><g
       style="fill:currentColor"
       id="g4896"
       transform="matrix(1.3756505,0,0,1.338822,39.376153,1028.4749)"><path
         d="M 0,3.5 A 1.5,1.5 0 0 1 1.5,2 h 13 A 1.5,1.5 0 0 1 16,3.5 v 9 A 1.5,1.5 0 0 1 14.5,14 H 1.5 A 1.5,1.5 0 0 1 0,12.5 Z M 1.5,3 A 0.5,0.5 0 0 0 1,3.5 v 9 A 0.5,0.5 0 0 0 1.5,13 h 13 A 0.5,0.5 0 0 0 15,12.5 v -9 A 0.5,0.5 0 0 0 14.5,3 Z"
         id="path4884" /><path
         d="M 8,8.5 A 0.5,0.5 0 0 1 8.5,8 h 5 A 0.5,0.5 0 0 1 14,8.5 v 3 A 0.5,0.5 0 0 1 13.5,12 h -5 A 0.5,0.5 0 0 1 8,11.5 Z"
         id="path4886" /></g></g></svg>
